<svg xmlns="http://www.w3.org/2000/svg" viewBox="0 0 256 256">
  <rect width="256" height="256" rx="28" fill="#2496ED"/>
  <g fill="#fff">
    <rect x="56" y="120" width="40" height="28" rx="4"/>
    <rect x="100" y="120" width="40" height="28" rx="4"/>
    <rect x="144" y="120" width="40" height="28" rx="4"/>
    <rect x="100" y="88" width="40" height="28" rx="4"/>
    <path d="M36 168c8 20 30 32 64 32 50 0 88-20 100-52 8 10 22 14 36 12-8-12-20-20-34-20-6 0-12 2-18 4-8-22-30-36-62-36v24H92v28H60v-28H36v36z"/>
  </g>
</svg>



