<svg xmlns="http://www.w3.org/2000/svg" viewBox="0 0 1200 675">
  <defs>
    <linearGradient id="g" x1="0" x2="1" y1="0" y2="1">
      <stop offset="0" stop-color="#eff6ff"/>
      <stop offset="1" stop-color="#e2e8f0"/>
    </linearGradient>
  </defs>
  <rect width="1200" height="675" rx="16" fill="url(#g)"/>
  <rect x="48" y="48" width="1104" height="72" rx="10" fill="#1e293b" opacity=".9"/>
  <rect x="80" y="144" width="516" height="420" rx="12" fill="#0ea5e9" opacity=".18"/>
  <rect x="628" y="144" width="524" height="192" rx="12" fill="#6366f1" opacity=".18"/>
  <rect x="628" y="360" width="524" height="204" rx="12" fill="#22c55e" opacity=".18"/>
  <g fill="#94a3b8">
    <rect x="84" y="66" width="120" height="12" rx="6"/>
    <rect x="216" y="66" width="80" height="12" rx="6"/>
    <rect x="308" y="66" width="60" height="12" rx="6"/>
  </g>
  <g fill="#334155">
    <rect x="96" y="168" width="200" height="16" rx="8"/>
    <rect x="96" y="204" width="360" height="12" rx="6"/>
    <rect x="96" y="228" width="280" height="12" rx="6"/>
  </g>
  <g fill="#334155">
    <rect x="668" y="168" width="240" height="16" rx="8"/>
    <rect x="668" y="204" width="420" height="12" rx="6"/>
    <rect x="668" y="228" width="360" height="12" rx="6"/>
  </g>
  <g fill="#334155">
    <rect x="668" y="384" width="260" height="16" rx="8"/>
    <rect x="668" y="420" width="340" height="12" rx="6"/>
    <rect x="668" y="444" width="300" height="12" rx="6"/>
  </g>
</svg>



