<svg xmlns="http://www.w3.org/2000/svg" viewBox="0 0 1440 720">
  <defs>
    <linearGradient id="g1" x1="0" x2="1" y1="0" y2="1">
      <stop offset="0" stop-color="#0B1220"/>
      <stop offset="1" stop-color="#0F172A"/>
    </linearGradient>
  </defs>
  <rect width="1440" height="720" fill="url(#g1)"/>
  <g opacity=".35" stroke="#22d3ee" stroke-width="1">
    <path d="M0 680 C 180 600, 360 640, 540 560 S 900 520, 1080 560 1260 640, 1440 560" fill="none"/>
    <path d="M0 520 C 200 440, 360 500, 600 420 S 900 380, 1140 420 1300 500, 1440 440" fill="none"/>
    <path d="M0 360 C 220 300, 420 320, 660 300 S 980 280, 1200 300 1340 340, 1440 320" fill="none"/>
  </g>
  <g fill="#38bdf8" opacity=".2">
    <circle cx="180" cy="200" r="2"/>
    <circle cx="320" cy="140" r="2"/>
    <circle cx="520" cy="220" r="3"/>
    <circle cx="760" cy="160" r="2"/>
    <circle cx="980" cy="240" r="2"/>
    <circle cx="1220" cy="180" r="2"/>
  </g>
</svg>



