<svg xmlns="http://www.w3.org/2000/svg" viewBox="0 0 256 256">
  <defs>
    <linearGradient id="g1" x1="0" x2="1" y1="0" y2="1">
      <stop offset="0" stop-color="#F89820"/>
      <stop offset="1" stop-color="#E94057"/>
    </linearGradient>
  </defs>
  <path d="M116 172c-42 14-68 4-68 20 0 14 38 22 84 22s84-8 84-22c0-14-26-6-68-20" fill="none" stroke="#5382A1" stroke-width="10"/>
  <path d="M144 88c-10 10-8 22 4 34 10 10 14 20 8 28-10 12-42 10-56-2 24 8 44 0 44-14 0-8-8-14-16-22-12-12-14-28 16-40z" fill="url(#g1)"/>
  <path d="M80 132c12 6 44 6 64 0" fill="none" stroke="#5382A1" stroke-width="10" stroke-linecap="round"/>
</svg>



