<svg xmlns="http://www.w3.org/2000/svg" viewBox="0 0 256 256">
  <rect width="256" height="256" rx="56" fill="#0B0B0F"/>
  <path fill="#fff" d="M128 56c-40 0-72 32-72 72 0 32 20 58 48 68 4 0 6-2 6-4v-18c-20 4-24-8-24-8-4-10-10-12-10-12-8-6 0-6 0-6 10 0 16 10 16 10 8 16 22 12 28 10 0-6 2-12 4-14-18-2-36-10-36-38 0-10 4-18 10-24-2-2-4-12 0-24 0 0 8-2 24 10 8-2 16-2 24 0 16-12 24-10 24-10 4 12 2 22 0 24 6 6 10 14 10 24 0 28-18 36-36 38 2 2 4 8 4 16v24c0 2 2 4 6 4 28-10 48-36 48-68 0-40-32-72-72-72z"/>
</svg>



