<svg xmlns="http://www.w3.org/2000/svg" viewBox="0 0 256 256">
  <defs>
    <linearGradient id="g" x1="0" x2="1" y1="0" y2="1">
      <stop offset="0" stop-color="#25D366"/>
      <stop offset="1" stop-color="#128C7E"/>
    </linearGradient>
  </defs>
  <rect width="256" height="256" rx="56" fill="url(#g)"/>
  <g fill="#fff">
    <path d="M128 56c-39 0-72 30-72 68 0 14 4 26 12 38l-8 30 30-10c10 6 24 10 38 10 39 0 72-30 72-68s-33-68-72-68zm0 16c31 0 56 23 56 52s-25 52-56 52c-12 0-23-3-32-9l-3-2-18 6 5-18-2-3c-6-9-10-19-10-30 0-29 25-52 56-52z"/>
    <path d="M112 90c-2 0-5 1-7 4-2 3-8 8-8 20s9 24 10 26 17 26 41 34c20 6 24 4 28 3 4-1 14-6 16-12s2-10 1-11-3-2-6-3-14-7-16-8-4-1-6 1-6 8-7 9-3 2-6 1-12-4-22-13c-8-7-13-16-14-18s0-4 1-5 3-4 3-6-1-4-1-6-5-5-7-5z"/>
  </g>
</svg>



